<svg xmlns="http://www.w3.org/2000/svg" version="1.1" xmlns:xlink="http://www.w3.org/1999/xlink" xmlns:svgjs="http://svgjs.dev/svgjs" width="1440" height="700" preserveAspectRatio="none" viewBox="0 0 1440 700"><g mask="url(&quot;#SvgjsMask1007&quot;)" fill="none"><path d="M0 11.67C11.35 -15.57 36.19 2.45 72.92 0C123.69 -3.39 123.96 0 175 0C262.5 0 262.5 0 350 0C422.91 0 428.9 -13.01 495.83 0C516.4 4 508.23 34.03 525 34.03C547.32 34.03 545.88 5.47 574 0C633.38 -11.55 637 0 700 0C787.5 0 787.5 0 875 0C958.53 0 1003.55 -42.7 1042.05 0C1082.44 44.8 1029.84 88.39 1032.79 175C1033.81 205.06 1030.16 233.33 1050 233.33C1086.49 233.33 1143.68 217.55 1145.45 175C1148.54 100.88 1038.2 47.34 1059.72 0C1077.97 -40.16 1142.36 0 1225 0C1312.5 0 1312.5 0 1400 0C1487.5 0 1531.25 -43.75 1575 0C1618.75 43.75 1575 87.5 1575 175C1575 256.5 1581.64 259.67 1575 338.01C1574.22 347.17 1560.17 342.9 1560.17 350C1560.17 359.84 1573.91 359 1575 371.88C1581.32 446.5 1575 448.44 1575 525C1575 612.5 1618.75 656.25 1575 700C1531.25 743.75 1487.5 700 1400 700C1312.5 700 1312.5 700 1225 700C1137.5 700 1137.5 700 1050 700C962.5 700 892.43 740.66 875 700C854.93 653.16 975 606.74 975 525C975 465.4 923.04 472.81 875 417.31C847.3 385.31 845.32 386.2 823.53 350C772.4 265.05 774.43 263.44 729.17 175C712.66 142.75 718.14 108.62 700 108.62C679.49 108.62 658.93 136.5 651.88 175C636.83 257.19 667.93 264.45 655.79 350C643.1 439.45 588.19 456.94 602.21 525C610.29 564.23 655.97 536.33 700 564.58C792.36 623.83 875 662.19 875 700C875 729.9 787.5 700 700 700C612.5 700 612.5 700 525 700C490 700 486.97 711.19 455 700C399.47 680.57 406.77 644.35 350 638.75C266.77 630.54 257.85 647.12 175 672.37C157.38 677.74 166.8 697.2 149.07 700C79.3 711.02 37.04 737.5 0 700C-37.5 662.03 -10.41 620.02 0 549.06C2.43 532.52 25.67 536.91 25.67 525C25.67 513.29 2.38 518.05 0 501.81C-10.45 430.55 0 425.9 0 350C0 262.5 0 262.5 0 175C0 93.33 -25.11 71.93 0 11.67" stroke="rgba(0, 119, 243, 0.58)" stroke-width="2"></path><path d="M1400 117.47C1335.27 117.47 1255.17 147.04 1255.17 175C1255.17 202.73 1334.63 228.85 1400 228.85C1429.87 228.85 1445.65 202.29 1445.65 175C1445.65 146.6 1430.51 117.47 1400 117.47" stroke="rgba(0, 119, 243, 0.58)" stroke-width="2"></path><path d="M0 70C54.76 41.88 95.28 104.55 175 85.14C239.03 69.55 226.86 29.5 287.5 0C314.36 -13.07 318.75 0 350 0C370.84 0 376.88 -13.15 391.67 0C464.38 64.63 458.12 77.97 525 155.56C533.54 165.47 537.31 163.1 542.5 175C579.68 260.32 614.37 265.68 609.74 350C605.62 425.05 578.43 434.45 525 493.75C499.6 521.95 488.76 509.89 452.08 525C401.26 545.93 402.22 548.91 350 565.83C263.68 593.81 252.59 573.97 175 614.8C125.12 641.05 143.31 676.51 95.06 700C55.81 719.11 23.62 723.91 0 700C-23.91 675.79 -19.12 643.59 0 603.75C22.88 556.09 84 563.99 84 525C84 486.66 22.4 495.76 0 449.1C-19.6 408.26 0 399.55 0 350C0 262.5 0 262.5 0 175C0 122.5 -32.74 86.81 0 70" stroke="rgba(0, 119, 243, 0.58)" stroke-width="2"></path><path d="M795.45 175C760.67 93.17 727.46 51.88 751.04 0C767.23 -35.62 813.02 0 875 0C908.81 0 930.66 -24.29 942.61 0C973.7 63.21 979.6 95.04 961.07 175C945.8 240.88 916.95 291.67 875 291.67C834.14 291.67 822.65 239 795.45 175" stroke="rgba(0, 119, 243, 0.58)" stroke-width="2"></path><path d="M1225 54.31C1193.84 46.11 1181.25 16.69 1181.25 0C1181.25 -10.47 1203.13 0 1225 0C1312.5 0 1312.5 0 1400 0C1487.5 0 1531.25 -43.75 1575 0C1618.75 43.75 1575 87.5 1575 175C1575 226.54 1592.96 278.08 1575 278.08C1552.07 278.08 1534.11 226.54 1493.21 175C1446.61 116.26 1461.88 85.37 1400 57.53C1327.77 25.03 1303.21 74.88 1225 54.31" stroke="rgba(0, 119, 243, 0.58)" stroke-width="2"></path><path d="M350 198.33C328.86 198.33 304.5 276.49 304.5 350C304.5 394.45 328.64 434.26 350 434.26C370.67 434.26 388.56 393.87 388.56 350C388.56 275.91 370.89 198.33 350 198.33" stroke="rgba(0, 119, 243, 0.58)" stroke-width="2"></path><path d="M1102.91 350C1133.71 282.93 1154.76 260.38 1225 245C1303.3 227.85 1318.47 252.14 1400 284.94C1448.98 304.64 1450.6 310.26 1486.02 350C1538.1 408.42 1540.13 412.67 1575 481.25C1584.62 500.17 1575 503.13 1575 525C1575 612.5 1618.75 656.25 1575 700C1531.25 743.75 1487.5 700 1400 700C1312.5 700 1312.5 700 1225 700C1170.32 700 1140.26 733.53 1115.63 700C1075.98 646.03 1099.62 612.73 1096.43 525C1093.26 437.73 1069.42 422.93 1102.91 350" stroke="rgba(0, 119, 243, 0.58)" stroke-width="2"></path><path d="M562.75 700C562.75 677.54 633.73 616.67 700 616.67C756.2 616.67 807.69 676.73 807.69 700C807.69 718.4 753.85 700 700 700C631.38 700 562.75 719.2 562.75 700" stroke="rgba(0, 119, 243, 0.58)" stroke-width="2"></path><path d="M0 128.33C50.7 128.33 76.21 139.95 134.62 175C163.71 192.45 160.01 201.49 175 233.33C201.2 288.99 197.26 291.24 217 350C246.26 437.07 286.45 458.64 273 525C265.45 562.26 220.22 557.24 175 557.24C154.88 557.24 159.22 540.53 142.33 525C71.72 460.1 57.31 466.85 0 396.39C-13.86 379.35 0 373.19 0 350C0 262.5 0 262.5 0 175C0 151.67 -16.61 128.33 0 128.33" stroke="rgba(0, 119, 243, 0.58)" stroke-width="2"></path><path d="M861.74 175C861.74 142.7 868.11 107.69 875 107.69C881.91 107.69 889.34 142.89 889.34 175C889.34 186.27 881.99 194.44 875 194.44C868.19 194.44 861.74 186.08 861.74 175" stroke="rgba(0, 119, 243, 0.58)" stroke-width="2"></path><path d="M1540.76 175C1540.76 110.22 1566.31 38.04 1575 38.04C1583.43 38.04 1575 106.52 1575 175C1575 196.57 1582.52 218.15 1575 218.15C1565.4 218.15 1540.76 200.28 1540.76 175" stroke="rgba(0, 119, 243, 0.58)" stroke-width="2"></path><path d="M462.71 350C462.71 308.44 498.3 262.5 525 262.5C548.78 262.5 563.68 307.38 563.68 350C563.68 383.94 548.08 415.63 525 415.63C497.59 415.63 462.71 385.01 462.71 350" stroke="rgba(0, 119, 243, 0.58)" stroke-width="2"></path><path d="M1204.65 350C1207.25 337.27 1212.02 333.1 1225 332.5C1309.7 328.61 1313.88 332.96 1400 341.03C1407.31 341.71 1408.61 343.38 1411.86 350C1453.77 435.37 1443.47 441.96 1490.32 525C1525.04 586.53 1545.36 577.87 1575 639.13C1587.7 665.37 1597.58 692.15 1575 700C1510.08 722.58 1487.5 700 1400 700C1339.85 700 1332.95 716.64 1279.69 700C1245.45 689.3 1242.82 678.5 1225 645.31C1195.83 591 1189.97 586.76 1185.71 525C1179.79 439.11 1187.6 433.52 1204.65 350" stroke="rgba(0, 119, 243, 0.58)" stroke-width="2"></path><path d="M0 658.44C11.99 658.44 41.05 687.8 41.05 700C41.05 708.58 10.2 710.33 0 700C-10.33 689.55 -8.53 658.44 0 658.44" stroke="rgba(0, 119, 243, 0.58)" stroke-width="2"></path><path d="M648.53 700C648.53 691.58 675.15 668.75 700 668.75C721.07 668.75 740.38 691.28 740.38 700C740.38 706.9 720.19 700 700 700C674.26 700 648.53 707.2 648.53 700" stroke="rgba(0, 119, 243, 0.58)" stroke-width="2"></path></g><defs><mask id="SvgjsMask1007"><rect width="1440" height="700" fill="#ffffff"></rect></mask></defs></svg>